# xmcd
#
# Track frame offsets:
# 150
# 18010
# 38505
# 52217
# 68369
# 88483
# 101261
# 124901
# 145171
# 161490
# 187458
#
# Disc length: 3063 seconds
#
#
# Revision: 0
# Processed by: cddbd v1.5.2PL0 Copyright (c) Steve Scherf et al.
# Submitted via: FreeRIP 2.96 
#
DISCID=930bf50b
DTITLE=H.T. Roberts - King Of The Rooftops
DYEAR=1900
DGENRE=
TTITLE0=Went Down To The Seashore
TTITLE1=Rose Of Sharon
TTITLE2=Box Of Confusion
TTITLE3=Time
TTITLE4=Restless City
TTITLE5=Steamfoot's Parade
TTITLE6=King Of The Rooftops
TTITLE7=Shadowland
TTITLE8=Icarus
TTITLE9=Closer To Heaven
TTITLE10=Went Down To The Seashore
EXTD=
EXTT0=
EXTT1=
EXTT2=
EXTT3=
EXTT4=
EXTT5=
EXTT6=
EXTT7=
EXTT8=
EXTT9=
EXTT10=
PLAYORDER=
